<?xml version="1.0" standalone="no"?>
<svg xmlns="http://www.w3.org/2000/svg" class="icon" viewBox="0 0 1024 1024">
  <path d="M752.5 64c-79.7 0-150 36.8-196.5 94.2C509.5 100.8 439.2 64 359.5 64 176.5 64 64 176.5 64 359.5c0 182.9 330.5 534.5 492 600.5 161.5-66 492-417.6 492-600.5C1048 176.5 935.5 64 752.5 64zM556 883.7C431.6 828.9 136 522.1 136 359.5 136 216.3 216.3 136 359.5 136c75.5 0 141.9 38.3 181.5 96.4 39.6-58.1 106-96.4 181.5-96.4 143.2 0 223.5 80.3 223.5 223.5 0 162.6-295.6 469.4-420 524.2z" fill="#333333"/>
</svg> 